{"asset":{"generator":"3D Builder","version":"2.0"},"scene":0,"scenes":[{"nodes":[0]}],"nodes":[{"mesh":0,"matrix":[2.0170681476593018,5.6909523010253906,4.4355087280273437,0,2.3015894889831543,-4.8723978996276855,5.20485782623291,0,6.8383679389953613,-0.038593381643295288,-3.0601403713226318,0,0.10878583788871765,-0.404283344745636,-0.16070558130741119,1]}],"meshes":[{"primitives":[{"attributes":{"POSITION":0,"COLOR_0":1},"mode":4,"indices":2}]}],"accessors":[{"bufferView":0,"byteOffset":0,"count":13089,"componentType":5126,"type":"VEC3","min":[0.035330649465322495,-0.052562735974788666,-0.045527398586273193],"max":[0.082699708640575409,0.00074238202068954706,0.0029089862946420908]},{"bufferView":1,"byteOffset":0,"count":13089,"componentType":5121,"type":"VEC4","normalized":true},{"bufferView":2,"byteOffset":0,"count":78102,"componentType":5125,"type":"SCALAR"}],"bufferViews":[{"buffer":0,"byteOffset":0,"byteLength":157068,"byteStride":12,"target":34962},{"buffer":0,"byteOffset":157068,"byteLength":52356,"byteStride":4,"target":34962},{"buffer":0,"byteOffset":209424,"byteLength":312408,"target":34963}],"buffers":[{"byteLength":521832,"uri":"Tan.bin"}]}