{"asset":{"generator":"3D Builder","version":"2.0"},"scene":0,"scenes":[{"nodes":[0]}],"nodes":[{"mesh":0,"matrix":[0.55012303590774536,-1.054979681968689,1.4446500539779663,0,0.550771951675415,-1.3381108045578003,-1.1869041919708252,0,1.7019684314727783,0.77403491735458374,-0.082858212292194366,0,0.034183479845523834,0.10265936702489853,-0.12772393226623535,1]}],"meshes":[{"primitives":[{"attributes":{"POSITION":0,"COLOR_0":1},"mode":4,"indices":2}]}],"accessors":[{"bufferView":0,"byteOffset":0,"count":13089,"componentType":5126,"type":"VEC3","min":[0.035330649465322495,-0.052562735974788666,-0.045527398586273193],"max":[0.082699708640575409,0.00074238202068954706,0.0029089862946420908]},{"bufferView":1,"byteOffset":0,"count":13089,"componentType":5121,"type":"VEC4","normalized":true},{"bufferView":2,"byteOffset":0,"count":78102,"componentType":5125,"type":"SCALAR"}],"bufferViews":[{"buffer":0,"byteOffset":0,"byteLength":157068,"byteStride":12,"target":34962},{"buffer":0,"byteOffset":157068,"byteLength":52356,"byteStride":4,"target":34962},{"buffer":0,"byteOffset":209424,"byteLength":312408,"target":34963}],"buffers":[{"byteLength":521832,"uri":"Tan.bin"}]}